TITLE ""
FILE "LR_black_phrase_E_A04.mp3" MP3
  TRACK 01 AUDIO
    TITLE "LR_black_phrase_E_A04_001"
    INDEX 01 00:00:00
  TRACK 02 AUDIO
    TITLE "LR_black_phrase_E_A04_002"
    INDEX 01 00:00:12
  TRACK 03 AUDIO
    TITLE "LR_black_phrase_E_A04_003"
    INDEX 01 00:01:22
  TRACK 04 AUDIO
    TITLE "LR_black_phrase_E_A04_004"
    INDEX 01 00:01:49
  TRACK 05 AUDIO
    TITLE "LR_black_phrase_E_A04_005"
    INDEX 01 00:04:24
  TRACK 06 AUDIO
    TITLE "LR_black_phrase_E_A04_006"
    INDEX 01 00:05:06
  TRACK 07 AUDIO
    TITLE "LR_black_phrase_E_A04_007"
    INDEX 01 00:07:53
  TRACK 08 AUDIO
    TITLE "LR_black_phrase_E_A04_008"
    INDEX 01 00:08:59
  TRACK 09 AUDIO
    TITLE "LR_black_phrase_E_A04_009"
    INDEX 01 00:10:05
  TRACK 10 AUDIO
    TITLE "LR_black_phrase_E_A04_010"
    INDEX 01 00:10:32
  TRACK 11 AUDIO
    TITLE "LR_black_phrase_E_A04_011"
    INDEX 01 00:12:62
  TRACK 12 AUDIO
    TITLE "LR_black_phrase_E_A04_012"
    INDEX 01 00:13:42
  TRACK 13 AUDIO
    TITLE "LR_black_phrase_E_A04_013"
    INDEX 01 00:15:71
  TRACK 14 AUDIO
    TITLE "LR_black_phrase_E_A04_014"
    INDEX 01 00:17:03
  TRACK 15 AUDIO
    TITLE "LR_black_phrase_E_A04_015"
    INDEX 01 00:18:22
  TRACK 16 AUDIO
    TITLE "LR_black_phrase_E_A04_016"
    INDEX 01 00:18:53
  TRACK 17 AUDIO
    TITLE "LR_black_phrase_E_A04_017"
    INDEX 01 00:21:32
  TRACK 18 AUDIO
    TITLE "LR_black_phrase_E_A04_018"
    INDEX 01 00:22:14
  TRACK 19 AUDIO
    TITLE "LR_black_phrase_E_A04_019"
    INDEX 01 00:24:68
  TRACK 20 AUDIO
    TITLE "LR_black_phrase_E_A04_020"
    INDEX 01 00:25:63
  TRACK 21 AUDIO
    TITLE "LR_black_phrase_E_A04_021"
    INDEX 01 00:27:33
  TRACK 22 AUDIO
    TITLE "LR_black_phrase_E_A04_022"
    INDEX 01 00:27:52
  TRACK 23 AUDIO
    TITLE "LR_black_phrase_E_A04_023"
    INDEX 01 00:30:27
  TRACK 24 AUDIO
    TITLE "LR_black_phrase_E_A04_024"
    INDEX 01 00:30:72
  TRACK 25 AUDIO
    TITLE "LR_black_phrase_E_A04_025"
    INDEX 01 00:33:47
  TRACK 26 AUDIO
    TITLE "LR_black_phrase_E_A04_026"
    INDEX 01 00:34:43
  TRACK 27 AUDIO
    TITLE "LR_black_phrase_E_A04_027"
    INDEX 01 00:35:64
  TRACK 28 AUDIO
    TITLE "LR_black_phrase_E_A04_028"
    INDEX 01 00:36:06
  TRACK 29 AUDIO
    TITLE "LR_black_phrase_E_A04_029"
    INDEX 01 00:38:52
  TRACK 30 AUDIO
    TITLE "LR_black_phrase_E_A04_030"
    INDEX 01 00:39:22
  TRACK 31 AUDIO
    TITLE "LR_black_phrase_E_A04_031"
    INDEX 01 00:41:68
  TRACK 32 AUDIO
    TITLE "LR_black_phrase_E_A04_032"
    INDEX 01 00:42:67
  TRACK 33 AUDIO
    TITLE "LR_black_phrase_E_A04_033"
    INDEX 01 00:44:15
  TRACK 34 AUDIO
    TITLE "LR_black_phrase_E_A04_034"
    INDEX 01 00:44:43
  TRACK 35 AUDIO
    TITLE "LR_black_phrase_E_A04_035"
    INDEX 01 00:46:40
  TRACK 36 AUDIO
    TITLE "LR_black_phrase_E_A04_036"
    INDEX 01 00:47:10
  TRACK 37 AUDIO
    TITLE "LR_black_phrase_E_A04_037"
    INDEX 01 00:49:09
  TRACK 38 AUDIO
    TITLE "LR_black_phrase_E_A04_038"
    INDEX 01 00:50:10
  TRACK 39 AUDIO
    TITLE "LR_black_phrase_E_A04_039"
    INDEX 01 00:51:29
  TRACK 40 AUDIO
    TITLE "LR_black_phrase_E_A04_040"
    INDEX 01 00:51:61
  TRACK 41 AUDIO
    TITLE "LR_black_phrase_E_A04_041"
    INDEX 01 00:54:53
  TRACK 42 AUDIO
    TITLE "LR_black_phrase_E_A04_042"
    INDEX 01 00:55:35
  TRACK 43 AUDIO
    TITLE "LR_black_phrase_E_A04_043"
    INDEX 01 00:58:29
  TRACK 44 AUDIO
    TITLE "LR_black_phrase_E_A04_044"
    INDEX 01 00:59:35
  TRACK 45 AUDIO
    TITLE "LR_black_phrase_E_A04_045"
    INDEX 01 01:00:54
  TRACK 46 AUDIO
    TITLE "LR_black_phrase_E_A04_046"
    INDEX 01 01:01:10
  TRACK 47 AUDIO
    TITLE "LR_black_phrase_E_A04_047"
    INDEX 01 01:03:50
  TRACK 48 AUDIO
    TITLE "LR_black_phrase_E_A04_048"
    INDEX 01 01:04:30
  TRACK 49 AUDIO
    TITLE "LR_black_phrase_E_A04_049"
    INDEX 01 01:06:70
  TRACK 50 AUDIO
    TITLE "LR_black_phrase_E_A04_050"
    INDEX 01 01:07:75
  TRACK 51 AUDIO
    TITLE "LR_black_phrase_E_A04_051"
    INDEX 01 01:09:27
  TRACK 52 AUDIO
    TITLE "LR_black_phrase_E_A04_052"
    INDEX 01 01:09:51
  TRACK 53 AUDIO
    TITLE "LR_black_phrase_E_A04_053"
    INDEX 01 01:11:52
  TRACK 54 AUDIO
    TITLE "LR_black_phrase_E_A04_054"
    INDEX 01 01:12:25
  TRACK 55 AUDIO
    TITLE "LR_black_phrase_E_A04_055"
    INDEX 01 01:14:24
  TRACK 56 AUDIO
    TITLE "LR_black_phrase_E_A04_056"
    INDEX 01 01:15:26
  TRACK 57 AUDIO
    TITLE "LR_black_phrase_E_A04_057"
    INDEX 01 01:16:29
  TRACK 58 AUDIO
    TITLE "LR_black_phrase_E_A04_058"
    INDEX 01 01:16:51
  TRACK 59 AUDIO
    TITLE "LR_black_phrase_E_A04_059"
    INDEX 01 01:19:71
  TRACK 60 AUDIO
    TITLE "LR_black_phrase_E_A04_060"
    INDEX 01 01:20:41
  TRACK 61 AUDIO
    TITLE "LR_black_phrase_E_A04_061"
    INDEX 01 01:23:61
  TRACK 62 AUDIO
    TITLE "LR_black_phrase_E_A04_062"
    INDEX 01 01:24:60
  TRACK 63 AUDIO
    TITLE "LR_black_phrase_E_A04_063"
    INDEX 01 01:26:06
  TRACK 64 AUDIO
    TITLE "LR_black_phrase_E_A04_064"
    INDEX 01 01:26:28
  TRACK 65 AUDIO
    TITLE "LR_black_phrase_E_A04_065"
    INDEX 01 01:28:70
  TRACK 66 AUDIO
    TITLE "LR_black_phrase_E_A04_066"
    INDEX 01 01:29:40
  TRACK 67 AUDIO
    TITLE "LR_black_phrase_E_A04_067"
    INDEX 01 01:32:07
  TRACK 68 AUDIO
    TITLE "LR_black_phrase_E_A04_068"
    INDEX 01 01:33:02
  TRACK 69 AUDIO
    TITLE "LR_black_phrase_E_A04_069"
    INDEX 01 01:34:23
  TRACK 70 AUDIO
    TITLE "LR_black_phrase_E_A04_070"
    INDEX 01 01:34:43
  TRACK 71 AUDIO
    TITLE "LR_black_phrase_E_A04_071"
    INDEX 01 01:36:36
  TRACK 72 AUDIO
    TITLE "LR_black_phrase_E_A04_072"
    INDEX 01 01:37:04
  TRACK 73 AUDIO
    TITLE "LR_black_phrase_E_A04_073"
    INDEX 01 01:38:72
  TRACK 74 AUDIO
    TITLE "LR_black_phrase_E_A04_074"
    INDEX 01 01:39:71
  TRACK 75 AUDIO
    TITLE "LR_black_phrase_E_A04_075"
    INDEX 01 01:41:11
  TRACK 76 AUDIO
    TITLE "LR_black_phrase_E_A04_076"
    INDEX 01 01:41:45
  TRACK 77 AUDIO
    TITLE "LR_black_phrase_E_A04_077"
    INDEX 01 01:44:10
  TRACK 78 AUDIO
    TITLE "LR_black_phrase_E_A04_078"
    INDEX 01 01:44:65
  TRACK 79 AUDIO
    TITLE "LR_black_phrase_E_A04_079"
    INDEX 01 01:47:32
  TRACK 80 AUDIO
    TITLE "LR_black_phrase_E_A04_080"
    INDEX 01 01:48:37
  TRACK 81 AUDIO
    TITLE "LR_black_phrase_E_A04_081"
    INDEX 01 01:49:50
  TRACK 82 AUDIO
    TITLE "LR_black_phrase_E_A04_082"
    INDEX 01 01:50:06
  TRACK 83 AUDIO
    TITLE "LR_black_phrase_E_A04_083"
    INDEX 01 01:52:33
  TRACK 84 AUDIO
    TITLE "LR_black_phrase_E_A04_084"
    INDEX 01 01:53:13
  TRACK 85 AUDIO
    TITLE "LR_black_phrase_E_A04_085"
    INDEX 01 01:55:39
  TRACK 86 AUDIO
    TITLE "LR_black_phrase_E_A04_086"
    INDEX 01 01:56:44
  TRACK 87 AUDIO
    TITLE "LR_black_phrase_E_A04_087"
    INDEX 01 01:58:04
  TRACK 88 AUDIO
    TITLE "LR_black_phrase_E_A04_088"
    INDEX 01 01:58:31
  TRACK 89 AUDIO
    TITLE "LR_black_phrase_E_A04_089"
    INDEX 01 02:00:72
  TRACK 90 AUDIO
    TITLE "LR_black_phrase_E_A04_090"
    INDEX 01 02:01:49
  TRACK 91 AUDIO
    TITLE "LR_black_phrase_E_A04_091"
    INDEX 01 02:04:14
  TRACK 92 AUDIO
    TITLE "LR_black_phrase_E_A04_092"
    INDEX 01 02:05:12
  TRACK 93 AUDIO
    TITLE "LR_black_phrase_E_A04_093"
    INDEX 01 02:06:23
  TRACK 94 AUDIO
    TITLE "LR_black_phrase_E_A04_094"
    INDEX 01 02:06:45
  TRACK 95 AUDIO
    TITLE "LR_black_phrase_E_A04_095"
    INDEX 01 02:09:69
  TRACK 96 AUDIO
    TITLE "LR_black_phrase_E_A04_096"
    INDEX 01 02:10:39
  TRACK 97 AUDIO
    TITLE "LR_black_phrase_E_A04_097"
    INDEX 01 02:13:64
  TRACK 98 AUDIO
    TITLE "LR_black_phrase_E_A04_098"
    INDEX 01 02:14:62
  TRACK 99 AUDIO
    TITLE "LR_black_phrase_E_A04_099"
    INDEX 01 02:16:20
  TRACK 100 AUDIO
    TITLE "LR_black_phrase_E_A04_100"
    INDEX 01 02:16:43
  TRACK 101 AUDIO
    TITLE "LR_black_phrase_E_A04_101"
    INDEX 01 02:19:41
  TRACK 102 AUDIO
    TITLE "LR_black_phrase_E_A04_102"
    INDEX 01 02:20:10
  TRACK 103 AUDIO
    TITLE "LR_black_phrase_E_A04_103"
    INDEX 01 02:23:08
  TRACK 104 AUDIO
    TITLE "LR_black_phrase_E_A04_104"
    INDEX 01 02:24:03
  TRACK 105 AUDIO
    TITLE "LR_black_phrase_E_A04_105"
    INDEX 01 02:25:28
  TRACK 106 AUDIO
    TITLE "LR_black_phrase_E_A04_106"
    INDEX 01 02:25:50
  TRACK 107 AUDIO
    TITLE "LR_black_phrase_E_A04_107"
    INDEX 01 02:27:68
  TRACK 108 AUDIO
    TITLE "LR_black_phrase_E_A04_108"
    INDEX 01 02:28:36
  TRACK 109 AUDIO
    TITLE "LR_black_phrase_E_A04_109"
    INDEX 01 02:30:55
  TRACK 110 AUDIO
    TITLE "LR_black_phrase_E_A04_110"
    INDEX 01 02:31:54
  TRACK 111 AUDIO
    TITLE "LR_black_phrase_E_A04_111"
    INDEX 01 02:32:72
  TRACK 112 AUDIO
    TITLE "LR_black_phrase_E_A04_112"
    INDEX 01 02:33:30
  TRACK 113 AUDIO
    TITLE "LR_black_phrase_E_A04_113"
    INDEX 01 02:36:05
  TRACK 114 AUDIO
    TITLE "LR_black_phrase_E_A04_114"
    INDEX 01 02:36:60
  TRACK 115 AUDIO
    TITLE "LR_black_phrase_E_A04_115"
    INDEX 01 02:39:32
  TRACK 116 AUDIO
    TITLE "LR_black_phrase_E_A04_116"
    INDEX 01 02:40:38
  TRACK 117 AUDIO
    TITLE "LR_black_phrase_E_A04_117"
    INDEX 01 02:41:59
  TRACK 118 AUDIO
    TITLE "LR_black_phrase_E_A04_118"
    INDEX 01 02:42:13
  TRACK 119 AUDIO
    TITLE "LR_black_phrase_E_A04_119"
    INDEX 01 02:45:25
  TRACK 120 AUDIO
    TITLE "LR_black_phrase_E_A04_120"
    INDEX 01 02:46:05
  TRACK 121 AUDIO
    TITLE "LR_black_phrase_E_A04_121"
    INDEX 01 02:49:17
  TRACK 122 AUDIO
    TITLE "LR_black_phrase_E_A04_122"
    INDEX 01 02:50:22
  TRACK 123 AUDIO
    TITLE "LR_black_phrase_E_A04_123"
    INDEX 01 02:51:36
  TRACK 124 AUDIO
    TITLE "LR_black_phrase_E_A04_124"
    INDEX 01 02:51:65
  TRACK 125 AUDIO
    TITLE "LR_black_phrase_E_A04_125"
    INDEX 01 02:54:14
  TRACK 126 AUDIO
    TITLE "LR_black_phrase_E_A04_126"
    INDEX 01 02:54:69
  TRACK 127 AUDIO
    TITLE "LR_black_phrase_E_A04_127"
    INDEX 01 02:57:21
  TRACK 128 AUDIO
    TITLE "LR_black_phrase_E_A04_128"
    INDEX 01 02:58:22
  TRACK 129 AUDIO
    TITLE "LR_black_phrase_E_A04_129"
    INDEX 01 02:59:55
  TRACK 130 AUDIO
    TITLE "LR_black_phrase_E_A04_130"
    INDEX 01 03:00:05
  TRACK 131 AUDIO
    TITLE "LR_black_phrase_E_A04_131"
    INDEX 01 03:02:59
  TRACK 132 AUDIO
    TITLE "LR_black_phrase_E_A04_132"
    INDEX 01 03:03:29
  TRACK 133 AUDIO
    TITLE "LR_black_phrase_E_A04_133"
    INDEX 01 03:06:08
  TRACK 134 AUDIO
    TITLE "LR_black_phrase_E_A04_134"
    INDEX 01 03:07:07
  TRACK 135 AUDIO
    TITLE "LR_black_phrase_E_A04_135"
    INDEX 01 03:08:26
  TRACK 136 AUDIO
    TITLE "LR_black_phrase_E_A04_136"
    INDEX 01 03:08:50
  TRACK 137 AUDIO
    TITLE "LR_black_phrase_E_A04_137"
    INDEX 01 03:11:07
  TRACK 138 AUDIO
    TITLE "LR_black_phrase_E_A04_138"
    INDEX 01 03:11:54
  TRACK 139 AUDIO
    TITLE "LR_black_phrase_E_A04_139"
    INDEX 01 03:14:11
  TRACK 140 AUDIO
    TITLE "LR_black_phrase_E_A04_140"
    INDEX 01 03:15:11
  TRACK 141 AUDIO
    TITLE "LR_black_phrase_E_A04_141"
    INDEX 01 03:16:45
  TRACK 142 AUDIO
    TITLE "LR_black_phrase_E_A04_142"
    INDEX 01 03:16:73
  TRACK 143 AUDIO
    TITLE "LR_black_phrase_E_A04_143"
    INDEX 01 03:19:75
  TRACK 144 AUDIO
    TITLE "LR_black_phrase_E_A04_144"
    INDEX 01 03:20:49
  TRACK 145 AUDIO
    TITLE "LR_black_phrase_E_A04_145"
    INDEX 01 03:23:53
  TRACK 146 AUDIO
    TITLE "LR_black_phrase_E_A04_146"
    INDEX 01 03:24:49
  TRACK 147 AUDIO
    TITLE "LR_black_phrase_E_A04_147"
    INDEX 01 03:25:70
  TRACK 148 AUDIO
    TITLE "LR_black_phrase_E_A04_148"
    INDEX 01 03:26:24
  TRACK 149 AUDIO
    TITLE "LR_black_phrase_E_A04_149"
    INDEX 01 03:28:48
  TRACK 150 AUDIO
    TITLE "LR_black_phrase_E_A04_150"
    INDEX 01 03:29:26
  TRACK 151 AUDIO
    TITLE "LR_black_phrase_E_A04_151"
    INDEX 01 03:31:51
  TRACK 152 AUDIO
    TITLE "LR_black_phrase_E_A04_152"
    INDEX 01 03:32:54
  TRACK 153 AUDIO
    TITLE "LR_black_phrase_E_A04_153"
    INDEX 01 03:33:63
  TRACK 154 AUDIO
    TITLE "LR_black_phrase_E_A04_154"
    INDEX 01 03:34:20
  TRACK 155 AUDIO
    TITLE "LR_black_phrase_E_A04_155"
    INDEX 01 03:36:03
  TRACK 156 AUDIO
    TITLE "LR_black_phrase_E_A04_156"
    INDEX 01 03:36:54
  TRACK 157 AUDIO
    TITLE "LR_black_phrase_E_A04_157"
    INDEX 01 03:38:39
  TRACK 158 AUDIO
    TITLE "LR_black_phrase_E_A04_158"
    INDEX 01 03:39:42
  TRACK 159 AUDIO
    TITLE "LR_black_phrase_E_A04_159"
    INDEX 01 03:41:02
  TRACK 160 AUDIO
    TITLE "LR_black_phrase_E_A04_160"
    INDEX 01 03:41:33
  TRACK 161 AUDIO
    TITLE "LR_black_phrase_E_A04_161"
    INDEX 01 03:43:42
  TRACK 162 AUDIO
    TITLE "LR_black_phrase_E_A04_162"
    INDEX 01 03:44:22
  TRACK 163 AUDIO
    TITLE "LR_black_phrase_E_A04_163"
    INDEX 01 03:46:31
  TRACK 164 AUDIO
    TITLE "LR_black_phrase_E_A04_164"
    INDEX 01 03:47:32
  TRACK 165 AUDIO
    TITLE "LR_black_phrase_E_A04_165"
    INDEX 01 03:48:39
  TRACK 166 AUDIO
    TITLE "LR_black_phrase_E_A04_166"
    INDEX 01 03:48:65
  TRACK 167 AUDIO
    TITLE "LR_black_phrase_E_A04_167"
    INDEX 01 03:51:61
  TRACK 168 AUDIO
    TITLE "LR_black_phrase_E_A04_168"
    INDEX 01 03:52:37
  TRACK 169 AUDIO
    TITLE "LR_black_phrase_E_A04_169"
    INDEX 01 03:55:34
  TRACK 170 AUDIO
    TITLE "LR_black_phrase_E_A04_170"
    INDEX 01 03:56:33
  TRACK 171 AUDIO
    TITLE "LR_black_phrase_E_A04_171"
    INDEX 01 03:57:48
  TRACK 172 AUDIO
    TITLE "LR_black_phrase_E_A04_172"
    INDEX 01 03:57:70
  TRACK 173 AUDIO
    TITLE "LR_black_phrase_E_A04_173"
    INDEX 01 04:00:09
  TRACK 174 AUDIO
    TITLE "LR_black_phrase_E_A04_174"
    INDEX 01 04:00:54
  TRACK 175 AUDIO
    TITLE "LR_black_phrase_E_A04_175"
    INDEX 01 04:02:69
  TRACK 176 AUDIO
    TITLE "LR_black_phrase_E_A04_176"
    INDEX 01 04:03:64
  TRACK 177 AUDIO
    TITLE "LR_black_phrase_E_A04_177"
    INDEX 01 04:04:68
  TRACK 178 AUDIO
    TITLE "LR_black_phrase_E_A04_178"
    INDEX 01 04:05:14
  TRACK 179 AUDIO
    TITLE "LR_black_phrase_E_A04_179"
    INDEX 01 04:06:67
  TRACK 180 AUDIO
    TITLE "LR_black_phrase_E_A04_180"
    INDEX 01 04:07:39
  TRACK 181 AUDIO
    TITLE "LR_black_phrase_E_A04_181"
    INDEX 01 04:09:14
